# File created by Blade
# Date/Time:  Thu Jan 22 15:49:58 2015
# Frame Rate: 120.000 fps
#------------------------------------------------------
:FULLY-SPECIFIED
:DEGREES
1371
root 3.390944 37.112832 4.884612 -3.674472 -2.480263 2.962399
RightUpLeg 11.818879 -6.476383 -6.390886
RightLeg -5.271399 -0.000000 0.000000
RightFoot -11.629354 -12.840982 17.024874
RightToeBase 14.464673 -0.000000 -0.000000
LeftUpLeg 10.365663 5.901881 1.167126
LeftLeg -3.003671 -0.000000 0.000000
LeftFoot -6.597583 7.324282 -16.733492
LeftToeBase 8.411958 -0.000000 -0.000000
Spine 3.833253 -20.394767 -7.059170
RightShoulder 3.739849 -15.365244 -17.152859
RightArm 43.047179 -12.995927 67.268099
RightForeArm 57.941996 -0.000000 128.801962
RightHand 21.876831 0.000000 -3.011435
RightHandThumb1 -24.326973 -0.000000 -32.862282
LeftShoulder -5.567443 0.593891 43.918604
LeftArm 132.085102 3.957726 -52.308512
LeftForeArm -6.119876 0.000000 126.173738
LeftHand -13.443146 -0.000000 -17.303236
LeftHandThumb1 -26.253704 0.000000 33.147579
Head -4.281014 47.843723 -14.230511
1372
root 3.391036 37.114210 4.883598 -3.655931 -2.457370 2.963106
RightUpLeg 11.804524 -6.466121 -6.384274
RightLeg -5.276367 -0.000000 0.000000
RightFoot -11.632247 -12.881014 17.039252
RightToeBase 14.460516 -0.000000 -0.000000
LeftUpLeg 10.336603 5.880619 1.161616
LeftLeg -2.993369 -0.000000 0.000000
LeftFoot -6.590274 7.327229 -16.743821
LeftToeBase 8.434444 -0.000000 -0.000000
Spine 3.810035 -20.427527 -7.054092
RightShoulder 3.704370 -15.420355 -17.221085
RightArm 43.116536 -12.993239 67.267459
RightForeArm 57.983979 -0.000000 128.787750
RightHand 21.898747 0.000000 -3.028494
RightHandThumb1 -24.326973 -0.000000 -32.862282
LeftShoulder -5.581452 0.638340 43.920138
LeftArm 132.086687 3.903297 -52.345265
LeftForeArm -6.146410 -0.000000 126.283825
LeftHand -13.521072 0.000000 -17.207555
LeftHandThumb1 -26.253704 0.000000 33.147579
Head -4.166330 47.872437 -14.115914
1373
root 3.391938 37.115218 4.880470 -3.625958 -2.436946 2.970827
RightUpLeg 11.779022 -6.468045 -6.382659
RightLeg -5.293499 -0.000000 0.000000
RightFoot -11.623402 -12.929403 17.035865
RightToeBase 14.429865 -0.000000 -0.000000
LeftUpLeg 10.290767 5.870084 1.148199
LeftLeg -2.975179 -0.000000 0.000000
LeftFoot -6.593599 7.313766 -16.733394
LeftToeBase 8.480967 -0.000000 -0.000000
Spine 3.776019 -20.465733 -7.052833
RightShoulder 3.691455 -15.401820 -17.285215
RightArm 43.108744 -13.008526 67.280638
RightForeArm 58.016913 -0.000000 128.795632
RightHand 21.901747 0.000000 -3.067068
RightHandThumb1 -24.326973 -0.000000 -32.862282
LeftShoulder -5.594289 0.657119 43.928699
LeftArm 132.077903 3.908779 -52.425774
LeftForeArm -6.359682 -0.000000 126.345106
LeftHand -13.397457 -0.000000 -17.386136
LeftHandThumb1 -26.253704 0.000000 33.147579
Head -4.070995 47.902111 -14.012508
1374
root 3.392193 37.116660 4.879226 -3.616901 -2.402221 2.970485
RightUpLeg 11.765891 -6.499482 -6.376250
RightLeg -5.280903 -0.000000 0.000000
RightFoot -11.624503 -12.975708 17.018050
RightToeBase 14.444181 -0.000000 -0.000000
LeftUpLeg 10.271906 5.837650 1.144440
LeftLeg -2.973822 -0.000000 0.000000
LeftFoot -6.570665 7.327887 -16.710993
LeftToeBase 8.432693 -0.000000 -0.000000
Spine 3.770253 -20.511642 -7.054324
RightShoulder 3.678428 -15.397183 -17.347957
RightArm 43.115518 -13.018805 67.279958
RightForeArm 58.048792 -0.000000 128.803348
RightHand 21.906934 -0.000000 -3.113326
RightHandThumb1 -24.326973 -0.000000 -32.862282
LeftShoulder -5.567021 0.626088 43.933314
LeftArm 132.044987 3.939124 -52.505959
LeftForeArm -6.598506 -0.000000 126.385593
LeftHand -13.503624 -0.000000 -17.729498
LeftHandThumb1 -26.253704 0.000000 33.147579
Head -3.969024 47.921519 -13.898311
